<svg xmlns="http://www.w3.org/2000/svg" width="32" height="32" viewBox="0 0 32 32"><g transform="translate(-13.8)"><path d="M39.724,20.558a6.209,6.209,0,0,0-4.807,2.233l-9.325-4.91a5.444,5.444,0,0,0,.338-1.887,5.326,5.326,0,0,0-.345-1.894L34.9,9.2a6.192,6.192,0,0,0,4.814,2.246,5.912,5.912,0,0,0,6.069-5.721,6.079,6.079,0,0,0-12.137,0,5.3,5.3,0,0,0,.345,1.894l-9.311,4.9a6.172,6.172,0,0,0-4.814-2.246A5.912,5.912,0,0,0,13.8,15.993a5.913,5.913,0,0,0,6.076,5.721A6.2,6.2,0,0,0,24.7,19.462l9.318,4.91a5.4,5.4,0,0,0-.352,1.907,6.079,6.079,0,0,0,12.137,0A5.913,5.913,0,0,0,39.724,20.558Zm0-18.757A4.055,4.055,0,0,1,43.89,5.728a4.173,4.173,0,0,1-8.331,0A4.06,4.06,0,0,1,39.724,1.8ZM19.876,19.92a4.055,4.055,0,0,1-4.166-3.927,4.055,4.055,0,0,1,4.166-3.927,4.055,4.055,0,0,1,4.166,3.927A4.06,4.06,0,0,1,19.876,19.92ZM39.724,30.2a3.934,3.934,0,1,1,4.166-3.927A4.055,4.055,0,0,1,39.724,30.2Z"/></g></svg>